<svg width="16" height="16" viewBox="0 0 16 16" fill="none" xmlns="http://www.w3.org/2000/svg">
<g clip-path="url(#clip0_535_254)">
<path d="M5.03344 14.5001C11.0697 14.5001 14.3722 9.49789 14.3722 5.16133C14.3722 5.02071 14.3691 4.87696 14.3628 4.73633C15.0052 4.27173 15.5597 3.69626 16 3.03696C15.4017 3.30316 14.7664 3.47701 14.1159 3.55258C14.8009 3.14203 15.3137 2.49707 15.5594 1.73727C14.915 2.11913 14.2104 2.3885 13.4756 2.53383C12.9806 2.0078 12.326 1.6595 11.6131 1.54279C10.9003 1.42608 10.1688 1.54746 9.53183 1.88816C8.89486 2.22885 8.38787 2.7699 8.08923 3.42763C7.7906 4.08537 7.71695 4.82317 7.87969 5.52696C6.575 5.46149 5.29862 5.12256 4.13332 4.53216C2.96802 3.94175 1.9398 3.11305 1.11531 2.09977C0.696266 2.82225 0.568038 3.67719 0.756687 4.49082C0.945337 5.30445 1.43671 6.01572 2.13094 6.48008C1.60975 6.46354 1.09998 6.32321 0.64375 6.07071V6.11133C0.643283 6.86952 0.905399 7.60448 1.38554 8.19127C1.86568 8.77806 2.53422 9.18047 3.2775 9.33008C2.7947 9.46218 2.28799 9.48142 1.79656 9.38633C2.0063 10.0384 2.41438 10.6087 2.96385 11.0176C3.51331 11.4266 4.17675 11.6538 4.86156 11.6676C3.69895 12.5808 2.26278 13.0762 0.784375 13.0738C0.522191 13.0734 0.260266 13.0574 0 13.0257C1.5019 13.9893 3.24902 14.501 5.03344 14.5001Z" fill="#161722"/>
</g>
<defs>
<clipPath id="clip0_535_254">
<rect width="16" height="16" fill="white"/>
</clipPath>
</defs>
</svg>
