<svg width="26" height="26" viewBox="0 0 26 26" fill="none" xmlns="http://www.w3.org/2000/svg">
<g clip-path="url(#clip0_68_1557)">
<path d="M13 9.79077C11.2303 9.79077 9.79059 11.2305 9.79059 13.0001C9.79059 14.7698 11.2303 16.2095 13 16.2095C14.7696 16.2095 16.2093 14.7698 16.2093 13.0001C16.2093 11.2305 14.7696 9.79077 13 9.79077ZM13 14.6861C12.0703 14.6861 11.314 13.9297 11.314 13.0001C11.314 12.0705 12.0704 11.3142 13 11.3142C13.9296 11.3142 14.6859 12.0705 14.6859 13.0001C14.6859 13.9297 13.9296 14.6861 13 14.6861Z" fill="#161722"/>
<path d="M7.1955 7.19563L6.11828 6.11841C4.27741 7.95928 3.26361 10.4033 3.26361 13.0002C3.26361 15.597 4.27741 18.041 6.11833 19.8819L7.19555 18.8047C5.64236 17.2515 4.78705 15.1901 4.78705 13.0002C4.78705 10.8102 5.64236 8.74878 7.1955 7.19563Z" fill="#161722"/>
<path d="M4.88886 4.88894L3.81169 3.81177C1.35368 6.26973 0 9.53289 0 13.0001C0 16.4673 1.35368 19.7304 3.81169 22.1884L4.88891 21.1112C2.71868 18.9409 1.52344 16.0604 1.52344 13.0001C1.52344 9.9398 2.71868 7.05923 4.88886 4.88894Z" fill="#161722"/>
<path d="M22.1882 3.81177L21.111 4.88899C23.2813 7.05923 24.4765 9.93979 24.4765 13.0001C24.4765 16.0604 23.2813 18.9409 21.1111 21.1112L22.1883 22.1884C24.6463 19.7304 25.9999 16.4673 25.9999 13.0001C25.9999 9.53288 24.6463 6.26973 22.1882 3.81177Z" fill="#161722"/>
<path d="M19.8818 6.11841L18.8046 7.19563C20.3577 8.74878 21.213 10.8102 21.213 13.0002C21.213 15.1901 20.3577 17.2515 18.8045 18.8047L19.8817 19.8819C21.7226 18.041 22.7365 15.597 22.7365 13.0002C22.7365 10.4033 21.7227 7.95928 19.8818 6.11841Z" fill="#161722"/>
<path d="M17.5751 8.4248L16.4979 9.50203C17.434 10.4381 17.9494 11.6803 17.9494 12.9999C17.9494 14.3195 17.434 15.5618 16.4979 16.4979L17.5751 17.5751C18.7989 16.3513 19.4729 14.7265 19.4729 12.9999C19.4729 11.2734 18.799 9.64858 17.5751 8.4248Z" fill="#161722"/>
<path d="M9.50212 9.50203L8.4249 8.4248C7.20107 9.64858 6.5271 11.2734 6.5271 12.9999C6.5271 14.7265 7.20107 16.3513 8.42485 17.5751L9.50212 16.4979C8.56602 15.5618 8.05054 14.3195 8.05054 12.9999C8.05054 11.6803 8.56607 10.4381 9.50212 9.50203Z" fill="#161722"/>
</g>
<defs>
<clipPath id="clip0_68_1557">
<rect width="26" height="26" fill="white"/>
</clipPath>
</defs>
</svg>
